<svg width="120" height="30" viewBox="0 0 120 30" fill="none" xmlns="http://www.w3.org/2000/svg">
<path d="M49.2585 11.0909V13.6477H42.3764V11.0909H49.2585ZM43.8182 8.47727H47.2912V18.5696C47.2912 18.7827 47.3243 18.9555 47.3906 19.0881C47.4616 19.2159 47.5634 19.3082 47.696 19.3651C47.8286 19.4171 47.9872 19.4432 48.1719 19.4432C48.3045 19.4432 48.4441 19.4313 48.5909 19.4077C48.7424 19.3793 48.8561 19.3556 48.9318 19.3366L49.4574 21.8438C49.2917 21.8911 49.0573 21.9503 48.7543 22.0213C48.456 22.0923 48.0985 22.1373 47.6818 22.1562C46.8674 22.1941 46.169 22.0994 45.5866 21.8722C45.009 21.6402 44.5663 21.2803 44.2585 20.7926C43.9555 20.3049 43.8087 19.6918 43.8182 18.9531V8.47727ZM51.0305 22V11.0909H54.5036V22H51.0305ZM52.7706 9.8196C52.2829 9.8196 51.8639 9.65862 51.5135 9.33665C51.1631 9.00994 50.9879 8.61695 50.9879 8.15767C50.9879 7.70312 51.1631 7.31487 51.5135 6.9929C51.8639 6.66619 52.2829 6.50284 52.7706 6.50284C53.263 6.50284 53.6821 6.66619 54.0277 6.9929C54.3781 7.31487 54.5533 7.70312 54.5533 8.15767C54.5533 8.61695 54.3781 9.00994 54.0277 9.33665C53.6821 9.65862 53.263 9.8196 52.7706 9.8196ZM60.6985 22.1562C59.8936 22.1562 59.1621 21.9479 58.5039 21.5312C57.8458 21.1146 57.3202 20.4896 56.9272 19.6562C56.5342 18.8229 56.3377 17.7884 56.3377 16.5526C56.3377 15.2694 56.5413 14.2135 56.9485 13.3849C57.3557 12.5563 57.8884 11.9432 58.5465 11.5455C59.2094 11.1477 59.922 10.9489 60.6843 10.9489C61.2572 10.9489 61.7473 11.0483 62.1545 11.2472C62.5617 11.4413 62.8978 11.6922 63.163 12C63.4281 12.3078 63.6294 12.6274 63.7667 12.9588H63.8377V7.45455H67.3107V22H63.8732V20.2315H63.7667C63.6199 20.5677 63.4116 20.8826 63.1417 21.1761C62.8718 21.4697 62.5333 21.7064 62.1261 21.8864C61.7236 22.0663 61.2478 22.1562 60.6985 22.1562ZM61.9059 19.4503C62.3273 19.4503 62.6871 19.3319 62.9854 19.0952C63.2837 18.8537 63.5134 18.5152 63.6744 18.0795C63.8353 17.6439 63.9158 17.1326 63.9158 16.5455C63.9158 15.9489 63.8353 15.4351 63.6744 15.0043C63.5181 14.5734 63.2885 14.242 62.9854 14.0099C62.6871 13.7779 62.3273 13.6619 61.9059 13.6619C61.475 13.6619 61.1104 13.7803 60.8121 14.017C60.5138 14.2538 60.2866 14.5876 60.1303 15.0185C59.9788 15.4493 59.9031 15.9583 59.9031 16.5455C59.9031 17.1326 59.9812 17.6439 60.1374 18.0795C60.2937 18.5152 60.5186 18.8537 60.8121 19.0952C61.1104 19.3319 61.475 19.4503 61.9059 19.4503ZM69.5071 22V11.0909H72.9801V22H69.5071ZM71.2472 9.8196C70.7595 9.8196 70.3404 9.65862 69.9901 9.33665C69.6397 9.00994 69.4645 8.61695 69.4645 8.15767C69.4645 7.70312 69.6397 7.31487 69.9901 6.9929C70.3404 6.66619 70.7595 6.50284 71.2472 6.50284C71.7396 6.50284 72.1586 6.66619 72.5043 6.9929C72.8546 7.31487 73.0298 7.70312 73.0298 8.15767C73.0298 8.61695 72.8546 9.00994 72.5043 9.33665C72.1586 9.65862 71.7396 9.8196 71.2472 9.8196Z" fill="#363636"/>
<path d="M81.3484 11.0909V13.6477H74.4663V11.0909H81.3484ZM75.908 8.47727H79.381V18.5696C79.381 18.7827 79.4142 18.9555 79.4805 19.0881C79.5515 19.2159 79.6533 19.3082 79.7859 19.3651C79.9184 19.4171 80.0771 19.4432 80.2617 19.4432C80.3943 19.4432 80.534 19.4313 80.6808 19.4077C80.8323 19.3793 80.9459 19.3556 81.0217 19.3366L81.5472 21.8438C81.3815 21.8911 81.1471 21.9503 80.8441 22.0213C80.5458 22.0923 80.1883 22.1373 79.7717 22.1562C78.9573 22.1941 78.2589 22.0994 77.6765 21.8722C77.0988 21.6402 76.6561 21.2803 76.3484 20.7926C76.0453 20.3049 75.8986 19.6918 75.908 18.9531V8.47727ZM88.0955 22.206C86.9497 22.206 85.9648 21.9716 85.141 21.5028C84.3219 21.0294 83.6897 20.3712 83.2447 19.5284C82.8043 18.6809 82.5842 17.6984 82.5842 16.581C82.5842 15.4588 82.8043 14.4763 83.2447 13.6335C83.6897 12.786 84.3219 12.1278 85.141 11.6591C85.9648 11.1856 86.9497 10.9489 88.0955 10.9489C89.2414 10.9489 90.2238 11.1856 91.043 11.6591C91.8668 12.1278 92.4989 12.786 92.9393 13.6335C93.3844 14.4763 93.6069 15.4588 93.6069 16.581C93.6069 17.6984 93.3844 18.6809 92.9393 19.5284C92.4989 20.3712 91.8668 21.0294 91.043 21.5028C90.2238 21.9716 89.2414 22.206 88.0955 22.206ZM88.1168 19.5852C88.5335 19.5852 88.8862 19.4574 89.1751 19.2017C89.4639 18.946 89.6841 18.5909 89.8356 18.1364C89.9918 17.6818 90.07 17.1562 90.07 16.5597C90.07 15.9536 89.9918 15.4233 89.8356 14.9688C89.6841 14.5142 89.4639 14.1591 89.1751 13.9034C88.8862 13.6477 88.5335 13.5199 88.1168 13.5199C87.686 13.5199 87.3214 13.6477 87.0231 13.9034C86.7295 14.1591 86.5046 14.5142 86.3484 14.9688C86.1969 15.4233 86.1211 15.9536 86.1211 16.5597C86.1211 17.1562 86.1969 17.6818 86.3484 18.1364C86.5046 18.5909 86.7295 18.946 87.0231 19.2017C87.3214 19.4574 87.686 19.5852 88.1168 19.5852ZM99.3704 22.1562C98.5655 22.1562 97.8339 21.9479 97.1758 21.5312C96.5176 21.1146 95.9921 20.4896 95.5991 19.6562C95.2061 18.8229 95.0096 17.7884 95.0096 16.5526C95.0096 15.2694 95.2132 14.2135 95.6204 13.3849C96.0276 12.5563 96.5603 11.9432 97.2184 11.5455C97.8813 11.1477 98.5939 10.9489 99.3562 10.9489C99.9291 10.9489 100.419 11.0483 100.826 11.2472C101.234 11.4413 101.57 11.6922 101.835 12C102.1 12.3078 102.301 12.6274 102.439 12.9588H102.51V7.45455H105.983V22H102.545V20.2315H102.439C102.292 20.5677 102.083 20.8826 101.814 21.1761C101.544 21.4697 101.205 21.7064 100.798 21.8864C100.395 22.0663 99.9196 22.1562 99.3704 22.1562ZM100.578 19.4503C100.999 19.4503 101.359 19.3319 101.657 19.0952C101.956 18.8537 102.185 18.5152 102.346 18.0795C102.507 17.6439 102.588 17.1326 102.588 16.5455C102.588 15.9489 102.507 15.4351 102.346 15.0043C102.19 14.5734 101.96 14.242 101.657 14.0099C101.359 13.7779 100.999 13.6619 100.578 13.6619C100.147 13.6619 99.7823 13.7803 99.484 14.017C99.1857 14.2538 98.9585 14.5876 98.8022 15.0185C98.6507 15.4493 98.5749 15.9583 98.5749 16.5455C98.5749 17.1326 98.6531 17.6439 98.8093 18.0795C98.9656 18.5152 99.1905 18.8537 99.484 19.0952C99.7823 19.3319 100.147 19.4503 100.578 19.4503ZM113.271 22.206C112.125 22.206 111.141 21.9716 110.317 21.5028C109.498 21.0294 108.866 20.3712 108.42 19.5284C107.98 18.6809 107.76 17.6984 107.76 16.581C107.76 15.4588 107.98 14.4763 108.42 13.6335C108.866 12.786 109.498 12.1278 110.317 11.6591C111.141 11.1856 112.125 10.9489 113.271 10.9489C114.417 10.9489 115.4 11.1856 116.219 11.6591C117.043 12.1278 117.675 12.786 118.115 13.6335C118.56 14.4763 118.783 15.4588 118.783 16.581C118.783 17.6984 118.56 18.6809 118.115 19.5284C117.675 20.3712 117.043 21.0294 116.219 21.5028C115.4 21.9716 114.417 22.206 113.271 22.206ZM113.293 19.5852C113.709 19.5852 114.062 19.4574 114.351 19.2017C114.64 18.946 114.86 18.5909 115.011 18.1364C115.168 17.6818 115.246 17.1562 115.246 16.5597C115.246 15.9536 115.168 15.4233 115.011 14.9688C114.86 14.5142 114.64 14.1591 114.351 13.9034C114.062 13.6477 113.709 13.5199 113.293 13.5199C112.862 13.5199 112.497 13.6477 112.199 13.9034C111.905 14.1591 111.68 14.5142 111.524 14.9688C111.373 15.4233 111.297 15.9536 111.297 16.5597C111.297 17.1562 111.373 17.6818 111.524 18.1364C111.68 18.5909 111.905 18.946 112.199 19.2017C112.497 19.4574 112.862 19.5852 113.293 19.5852Z" fill="#979696"/>
<rect width="30" height="30" rx="12" fill="#363636"/>
<mask id="mask0_1012_2" style="mask-type:alpha" maskUnits="userSpaceOnUse" x="3" y="3" width="24" height="24">
<rect x="3" y="3" width="24" height="24" fill="#D9D9D9"/>
</mask>
<g mask="url(#mask0_1012_2)">
<path d="M13 19.4L9 15.4L10.4 14L13 16.6L19.6 10L21 11.4L13 19.4Z" fill="white"/>
</g>
</svg>
