<svg width="77" height="17" viewBox="0 0 77 17" fill="none" xmlns="http://www.w3.org/2000/svg">
<path d="M7.25852 5.09091V7.64773H0.37642V5.09091H7.25852ZM1.81818 2.47727H5.29119V12.5696C5.29119 12.7827 5.32434 12.9555 5.39062 13.0881C5.46165 13.2159 5.56345 13.3082 5.69602 13.3651C5.8286 13.4171 5.98722 13.4432 6.17188 13.4432C6.30445 13.4432 6.44413 13.4313 6.59091 13.4077C6.74242 13.3793 6.85606 13.3556 6.93182 13.3366L7.45739 15.8438C7.29167 15.8911 7.05729 15.9503 6.75426 16.0213C6.45597 16.0923 6.09848 16.1373 5.68182 16.1562C4.86742 16.1941 4.16903 16.0994 3.58665 15.8722C3.009 15.6402 2.56629 15.2803 2.25852 14.7926C1.95549 14.3049 1.80871 13.6918 1.81818 12.9531V2.47727ZM9.03054 16V5.09091H12.5036V16H9.03054ZM10.7706 3.8196C10.2829 3.8196 9.86387 3.65862 9.51349 3.33665C9.16312 3.00994 8.98793 2.61695 8.98793 2.15767C8.98793 1.70312 9.16312 1.31487 9.51349 0.992898C9.86387 0.666193 10.2829 0.50284 10.7706 0.50284C11.263 0.50284 11.6821 0.666193 12.0277 0.992898C12.3781 1.31487 12.5533 1.70312 12.5533 2.15767C12.5533 2.61695 12.3781 3.00994 12.0277 3.33665C11.6821 3.65862 11.263 3.8196 10.7706 3.8196ZM18.6985 16.1562C17.8936 16.1562 17.1621 15.9479 16.5039 15.5312C15.8458 15.1146 15.3202 14.4896 14.9272 13.6562C14.5342 12.8229 14.3377 11.7884 14.3377 10.5526C14.3377 9.26941 14.5413 8.21354 14.9485 7.38494C15.3557 6.55634 15.8884 5.94318 16.5465 5.54545C17.2094 5.14773 17.922 4.94886 18.6843 4.94886C19.2572 4.94886 19.7473 5.0483 20.1545 5.24716C20.5617 5.44129 20.8978 5.69223 21.163 6C21.4281 6.30777 21.6294 6.62737 21.7667 6.95881H21.8377V1.45455H25.3107V16H21.8732V14.2315H21.7667C21.6199 14.5677 21.4116 14.8826 21.1417 15.1761C20.8718 15.4697 20.5333 15.7064 20.1261 15.8864C19.7236 16.0663 19.2478 16.1562 18.6985 16.1562ZM19.9059 13.4503C20.3273 13.4503 20.6871 13.3319 20.9854 13.0952C21.2837 12.8537 21.5134 12.5152 21.6744 12.0795C21.8353 11.6439 21.9158 11.1326 21.9158 10.5455C21.9158 9.94886 21.8353 9.43513 21.6744 9.00426C21.5181 8.57339 21.2885 8.24195 20.9854 8.00994C20.6871 7.77794 20.3273 7.66193 19.9059 7.66193C19.475 7.66193 19.1104 7.7803 18.8121 8.01705C18.5138 8.25379 18.2866 8.58759 18.1303 9.01847C17.9788 9.44934 17.9031 9.95833 17.9031 10.5455C17.9031 11.1326 17.9812 11.6439 18.1374 12.0795C18.2937 12.5152 18.5186 12.8537 18.8121 13.0952C19.1104 13.3319 19.475 13.4503 19.9059 13.4503ZM27.5071 16V5.09091H30.9801V16H27.5071ZM29.2472 3.8196C28.7595 3.8196 28.3404 3.65862 27.9901 3.33665C27.6397 3.00994 27.4645 2.61695 27.4645 2.15767C27.4645 1.70312 27.6397 1.31487 27.9901 0.992898C28.3404 0.666193 28.7595 0.50284 29.2472 0.50284C29.7396 0.50284 30.1586 0.666193 30.5043 0.992898C30.8546 1.31487 31.0298 1.70312 31.0298 2.15767C31.0298 2.61695 30.8546 3.00994 30.5043 3.33665C30.1586 3.65862 29.7396 3.8196 29.2472 3.8196Z" fill="#363636"/>
<path d="M39.3484 5.09091V7.64773H32.4663V5.09091H39.3484ZM33.908 2.47727H37.381V12.5696C37.381 12.7827 37.4142 12.9555 37.4805 13.0881C37.5515 13.2159 37.6533 13.3082 37.7859 13.3651C37.9184 13.4171 38.0771 13.4432 38.2617 13.4432C38.3943 13.4432 38.534 13.4313 38.6808 13.4077C38.8323 13.3793 38.9459 13.3556 39.0217 13.3366L39.5472 15.8438C39.3815 15.8911 39.1471 15.9503 38.8441 16.0213C38.5458 16.0923 38.1883 16.1373 37.7717 16.1562C36.9573 16.1941 36.2589 16.0994 35.6765 15.8722C35.0988 15.6402 34.6561 15.2803 34.3484 14.7926C34.0453 14.3049 33.8986 13.6918 33.908 12.9531V2.47727ZM46.0955 16.206C44.9497 16.206 43.9648 15.9716 43.141 15.5028C42.3219 15.0294 41.6897 14.3712 41.2447 13.5284C40.8043 12.6809 40.5842 11.6984 40.5842 10.581C40.5842 9.45881 40.8043 8.47633 41.2447 7.63352C41.6897 6.78598 42.3219 6.12784 43.141 5.65909C43.9648 5.18561 44.9497 4.94886 46.0955 4.94886C47.2414 4.94886 48.2238 5.18561 49.043 5.65909C49.8668 6.12784 50.4989 6.78598 50.9393 7.63352C51.3844 8.47633 51.6069 9.45881 51.6069 10.581C51.6069 11.6984 51.3844 12.6809 50.9393 13.5284C50.4989 14.3712 49.8668 15.0294 49.043 15.5028C48.2238 15.9716 47.2414 16.206 46.0955 16.206ZM46.1168 13.5852C46.5335 13.5852 46.8862 13.4574 47.1751 13.2017C47.4639 12.946 47.6841 12.5909 47.8356 12.1364C47.9918 11.6818 48.07 11.1562 48.07 10.5597C48.07 9.9536 47.9918 9.4233 47.8356 8.96875C47.6841 8.5142 47.4639 8.15909 47.1751 7.90341C46.8862 7.64773 46.5335 7.51989 46.1168 7.51989C45.686 7.51989 45.3214 7.64773 45.0231 7.90341C44.7295 8.15909 44.5046 8.5142 44.3484 8.96875C44.1969 9.4233 44.1211 9.9536 44.1211 10.5597C44.1211 11.1562 44.1969 11.6818 44.3484 12.1364C44.5046 12.5909 44.7295 12.946 45.0231 13.2017C45.3214 13.4574 45.686 13.5852 46.1168 13.5852ZM57.3704 16.1562C56.5655 16.1562 55.8339 15.9479 55.1758 15.5312C54.5176 15.1146 53.9921 14.4896 53.5991 13.6562C53.2061 12.8229 53.0096 11.7884 53.0096 10.5526C53.0096 9.26941 53.2132 8.21354 53.6204 7.38494C54.0276 6.55634 54.5603 5.94318 55.2184 5.54545C55.8813 5.14773 56.5939 4.94886 57.3562 4.94886C57.9291 4.94886 58.4192 5.0483 58.8263 5.24716C59.2335 5.44129 59.5697 5.69223 59.8349 6C60.1 6.30777 60.3013 6.62737 60.4386 6.95881H60.5096V1.45455H63.9826V16H60.5451V14.2315H60.4386C60.2918 14.5677 60.0835 14.8826 59.8136 15.1761C59.5437 15.4697 59.2051 15.7064 58.7979 15.8864C58.3955 16.0663 57.9196 16.1562 57.3704 16.1562ZM58.5778 13.4503C58.9992 13.4503 59.359 13.3319 59.6573 13.0952C59.9556 12.8537 60.1853 12.5152 60.3462 12.0795C60.5072 11.6439 60.5877 11.1326 60.5877 10.5455C60.5877 9.94886 60.5072 9.43513 60.3462 9.00426C60.19 8.57339 59.9603 8.24195 59.6573 8.00994C59.359 7.77794 58.9992 7.66193 58.5778 7.66193C58.1469 7.66193 57.7823 7.7803 57.484 8.01705C57.1857 8.25379 56.9585 8.58759 56.8022 9.01847C56.6507 9.44934 56.5749 9.95833 56.5749 10.5455C56.5749 11.1326 56.6531 11.6439 56.8093 12.0795C56.9656 12.5152 57.1905 12.8537 57.484 13.0952C57.7823 13.3319 58.1469 13.4503 58.5778 13.4503ZM71.2713 16.206C70.1255 16.206 69.1406 15.9716 68.3168 15.5028C67.4976 15.0294 66.8655 14.3712 66.4205 13.5284C65.9801 12.6809 65.7599 11.6984 65.7599 10.581C65.7599 9.45881 65.9801 8.47633 66.4205 7.63352C66.8655 6.78598 67.4976 6.12784 68.3168 5.65909C69.1406 5.18561 70.1255 4.94886 71.2713 4.94886C72.4171 4.94886 73.3996 5.18561 74.2188 5.65909C75.0426 6.12784 75.6747 6.78598 76.1151 7.63352C76.5601 8.47633 76.7827 9.45881 76.7827 10.581C76.7827 11.6984 76.5601 12.6809 76.1151 13.5284C75.6747 14.3712 75.0426 15.0294 74.2188 15.5028C73.3996 15.9716 72.4171 16.206 71.2713 16.206ZM71.2926 13.5852C71.7093 13.5852 72.062 13.4574 72.3509 13.2017C72.6397 12.946 72.8598 12.5909 73.0114 12.1364C73.1676 11.6818 73.2457 11.1562 73.2457 10.5597C73.2457 9.9536 73.1676 9.4233 73.0114 8.96875C72.8598 8.5142 72.6397 8.15909 72.3509 7.90341C72.062 7.64773 71.7093 7.51989 71.2926 7.51989C70.8617 7.51989 70.4972 7.64773 70.1989 7.90341C69.9053 8.15909 69.6804 8.5142 69.5241 8.96875C69.3726 9.4233 69.2969 9.9536 69.2969 10.5597C69.2969 11.1562 69.3726 11.6818 69.5241 12.1364C69.6804 12.5909 69.9053 12.946 70.1989 13.2017C70.4972 13.4574 70.8617 13.5852 71.2926 13.5852Z" fill="#979696"/>
</svg>
